<svg xmlns="http://www.w3.org/2000/svg" viewBox="0 0 128 128" fill="none">
  <defs>
    <linearGradient id="shieldGrad" x1="0" y1="0" x2="1" y2="1">
      <stop offset="0%"   stop-color="#E61D25" />
      <stop offset="50%"  stop-color="#2A398D" />
      <stop offset="100%" stop-color="#3CAC3B" />
    </linearGradient>
    <linearGradient id="goldGrad" x1="0" y1="0" x2="1" y2="1">
      <stop offset="0%"   stop-color="#FFE57F" />
      <stop offset="40%"  stop-color="#F3C623" />
      <stop offset="100%" stop-color="#AA7C11" />
    </linearGradient>
    <!-- Dark background circle so it's visible on both light & dark browser tabs -->
    <clipPath id="circleClip">
      <circle cx="64" cy="64" r="60" />
    </clipPath>
  </defs>

  <!-- Dark background -->
  <circle cx="64" cy="64" r="64" fill="#08080a" />

  <!-- Subtle tricolor ring border -->
  <circle cx="64" cy="64" r="60" fill="none" stroke="url(#shieldGrad)" stroke-width="2" opacity="0.7" />

  <!-- Shield outline (same as logo) -->
  <path d="M 64,12 L 108,34 L 108,94 L 64,116 L 20,94 L 20,34 Z"
        fill="none" stroke="url(#shieldGrad)" stroke-width="2" opacity="0.4" />

  <!-- Trophy Base & Stem -->
  <rect x="44" y="100" width="40" height="4" rx="2" fill="url(#goldGrad)" />
  <rect x="58" y="74"  width="12" height="26" fill="url(#goldGrad)" />

  <!-- Trophy Cup Body -->
  <path d="M 34,36 L 40,70 Q 64,86 88,70 L 94,36 Z" fill="url(#goldGrad)" />

  <!-- Trophy Cup inner shading -->
  <path d="M 42,40 L 46,66 Q 64,78 82,66 L 86,40 Z" fill="#AA7C11" opacity="0.4" />

  <!-- Trophy Handles -->
  <path d="M 34,36 Q 18,36 18,52 Q 18,62 34,62"
        fill="none" stroke="url(#goldGrad)" stroke-width="6" stroke-linecap="round"/>
  <path d="M 94,36 Q 110,36 110,52 Q 110,62 94,62"
        fill="none" stroke="url(#goldGrad)" stroke-width="6" stroke-linecap="round"/>

  <!-- Soccer Ball: tricolor sectors -->
  <path d="M 64,44 L 46.68,34 A 20,20 0 0,1 81.32,34 Z" fill="#E61D25" />
  <path d="M 64,44 L 81.32,34 A 20,20 0 0,1 64,64 Z"    fill="#2A398D" />
  <path d="M 64,44 L 64,64 A 20,20 0 0,1 46.68,34 Z"    fill="#3CAC3B" />

  <!-- Soccer Ball: seams (same as logo) -->
  <polygon points="64,38 71.6,43.5 68.7,51.5 59.3,51.5 56.4,43.5"
           fill="none" stroke="url(#goldGrad)" stroke-width="2" stroke-linejoin="round" />
  <line x1="64"   y1="38"   x2="64"    y2="24"   stroke="url(#goldGrad)" stroke-width="2" stroke-linecap="round" />
  <line x1="71.6" y1="43.5" x2="81.32" y2="34"   stroke="url(#goldGrad)" stroke-width="2" stroke-linecap="round" />
  <line x1="68.7" y1="51.5" x2="76"    y2="62.5" stroke="url(#goldGrad)" stroke-width="2" stroke-linecap="round" />
  <line x1="59.3" y1="51.5" x2="52"    y2="62.5" stroke="url(#goldGrad)" stroke-width="2" stroke-linecap="round" />
  <line x1="56.4" y1="43.5" x2="46.68" y2="34"   stroke="url(#goldGrad)" stroke-width="2" stroke-linecap="round" />
</svg>
